<?xml version="1.0" encoding="UTF-8"?> <svg xmlns="http://www.w3.org/2000/svg" viewBox="0 0 1026.79 176.49"><defs><style>.cls-1{fill:#00464d;}.cls-2{fill:#bde6d3;}.cls-3{fill:#ff9e00;}.cls-4{fill:#00c9c3;}.cls-5{fill:#ff5a3f;}</style></defs><g id="Layer_4" data-name="Layer 4"><path class="cls-1" d="M623.33,109A36.91,36.91,0,0,0,650.9,121.3c14.18,0,19.17-7.23,19.17-13.53,0-9.19-10-11.81-21.14-14.7-14-3.68-30.33-7.75-30.33-25.6,0-14.44,12.74-24.94,31-24.94,13.52,0,24.15,4.33,31.9,12.2l-7.61,9.72c-6.7-7.09-15.89-10.24-25.34-10.24-9.72,0-16.41,5-16.41,12.34,0,7.88,9.45,10.37,20.35,13.13,14.31,3.81,31,8.27,31,26.91,0,13.66-9.45,26.39-33.08,26.39-15.63,0-27-5.65-34.53-13.92Z"></path><path class="cls-1" d="M690.64,99.63c0-18.24,12.34-33.21,32-33.21s32,15,32,33.21S742.5,133,722.68,133,690.64,118,690.64,99.63Zm51.73,0c0-11.94-7-22.71-19.69-22.71S703,87.69,703,99.63s7.09,22.85,19.7,22.85S742.37,111.71,742.37,99.63Z"></path><path class="cls-1" d="M795.23,66.42c11.95,0,19.17,5,23.77,11.16l-7.88,7.22a17.73,17.73,0,0,0-15.36-7.88c-12.47,0-20.48,9.59-20.48,22.71s8,22.85,20.48,22.85a18,18,0,0,0,15.36-7.88l7.88,7.22C814.4,128,807.18,133,795.23,133c-19.16,0-32.29-14.31-32.29-33.35S776.07,66.42,795.23,66.42Z"></path><path class="cls-1" d="M827.24,49.88a7.72,7.72,0,0,1,7.62-7.62,7.62,7.62,0,0,1,7.61,7.62,7.5,7.5,0,0,1-7.61,7.48A7.59,7.59,0,0,1,827.24,49.88ZM829.08,68H840.9V131.4H829.08Z"></path><path class="cls-1" d="M883.44,66.42c19,0,30.85,14.83,30.85,34.26v2.89H864.14c.92,10.77,8.79,19.69,21.53,19.69,6.69,0,14-2.62,18.77-7.48l5.52,7.75c-6.31,6.17-15.23,9.45-25.47,9.45-18.91,0-32.82-13.39-32.82-33.35C851.67,81.25,864.93,66.42,883.44,66.42ZM864,95h38.73c-.27-8.4-5.91-18.91-19.3-18.91C870.7,76.13,864.66,86.37,864,95Z"></path><path class="cls-1" d="M951,121.29a10.55,10.55,0,0,1-4.62,1.19c-4.07,0-6.17-3.28-6.17-7.75V78.37h15.72L951.8,68H940.21V50.66H928.39V68h-10.5V78.37h10.5v39c0,10,5.12,15.62,15.1,15.62a21.7,21.7,0,0,0,11.07-2.75Z"></path><path class="cls-1" d="M1014.05,68l-19.82,49.76L974.41,68H961.8l26.13,64.07-3.68,8.4c-2,4.73-4.85,6.17-9.19,6.17a15.59,15.59,0,0,1-3.91-.57l4.5,11.06c9-.21,15.87-3.78,19.89-13.64L1026.79,68Z"></path><path class="cls-1" d="M261.22,113.29H218.29L211.2,131.4H196.76l34.79-87.56H248l34.79,87.56H268.31ZM222.1,101.6h35.32L239.69,55.26Z"></path><path class="cls-1" d="M330.8,122.74C325.94,128,317.93,133,308.22,133,294.7,133,288,126.15,288,112.76V68h11.81v40.83c0,10.51,5.26,13.66,13.4,13.66,7.35,0,14-6.94,17.59-11.66V68h11.81V131.4H330.8Z"></path><path class="cls-1" d="M399.38,49.88A7.71,7.71,0,0,1,407,42.26a7.62,7.62,0,0,1,7.61,7.62A7.5,7.5,0,0,1,407,57.36,7.59,7.59,0,0,1,399.38,49.88ZM401.21,68H413V131.4H401.21Z"></path><path class="cls-1" d="M428.82,114.47c4.33,4.73,12.73,9.06,21.27,9.06,8.92,0,13.65-3.68,13.65-9.06,0-6.3-7.22-8.4-15.36-10.24-10.77-2.5-23.37-5.38-23.37-19,0-10.11,8.67-18.77,24.16-18.77,10.89,0,18.77,3.94,24.15,9.06l-5.25,8.27C464.4,79.29,457.31,76,449.3,76s-13,3.15-13,8.27c0,5.52,6.83,7.35,14.71,9.19,11,2.5,24.15,5.52,24.15,20.09,0,10.9-8.93,19.43-25.6,19.43-10.63,0-19.95-3.28-26.39-9.85Z"></path><path class="cls-1" d="M574,117.77h0V85.59c0-12.74-6.3-19.17-18-19.17-9.32,0-17.73,5.91-21.4,11.82-2-6.83-7.61-11.82-17.2-11.82S499.53,73,496.9,76.92V68H485.08V131.4H496.9V86.11c3.15-4.59,9.32-9.19,15.49-9.19,8,0,11.16,4.86,11.16,12.21V131.4h11.82V86c3-4.59,9.32-9.06,15.75-9.06,7.75,0,11,4.86,11,12.21v28.64h0c-.41,9.22,2.91,18.64,11.05,24l8.28-8.77C577.11,129.05,574,125.41,574,117.77Z"></path><path class="cls-1" d="M385.88,121.29a10.56,10.56,0,0,1-4.63,1.19c-4.06,0-6.16-3.28-6.16-7.75V78.37h15.72L386.67,68H375.09V50.66H363.27V68h-10.5V78.37h10.5v39c0,10,5.12,15.62,15.1,15.62a21.7,21.7,0,0,0,11.07-2.75Z"></path><path class="cls-2" d="M78.6,51.27c2-1.44,4-2.92,6.09-4.43,2.49-1.83,5.11-3.74,7.86-5.66A66.21,66.21,0,0,1,100.45.85,90,90,0,0,0,88.3,0c-1.58,0-3.15.05-4.71.13A80.57,80.57,0,0,0,78.6,51.27Z"></path><path class="cls-2" d="M110.47,91.09c-1.2-2.94-2.46-5.86-3.7-8.74-.24-.54-.48-1.09-.71-1.63-1.16-2.68-3.23-8.09-5-12.84C100,65.15,99,62.63,98.34,61l-3.8,2.78c-3,2.19-6,4.4-9.11,6.54,1.08,2.53,5.28,12.41,7,16.34,1.43,3.33,2.92,6.76,4.31,10.13.31.76.63,1.54.94,2.33q6.84-4.23,13.08-7.32C110.66,91.54,110.57,91.31,110.47,91.09Z"></path><path class="cls-2" d="M118.87,108.88a64.56,64.56,0,0,0-14.3,7.5c1.81,8.3,9.22,34.39-11.79,60.11A87.68,87.68,0,0,0,113.2,173C122.86,155.64,125.54,133.65,118.87,108.88Z"></path><path class="cls-3" d="M64.9,88.6l.38.74a93.36,93.36,0,0,0,13.24-7.47l-.27-.49a98.14,98.14,0,0,1-4.68-8.68A101.09,101.09,0,0,1,68,58.15,102.14,102.14,0,0,1,66.88,2.63,87.86,87.86,0,0,0,49.55,9C46.35,30.23,48.4,58.18,64.9,88.6Z"></path><path class="cls-3" d="M91.17,120a.31.31,0,0,1,0-.1,100.77,100.77,0,0,0-3.08-14.43q-.66-2.31-1.44-4.71l-.26-.79-4.78,3a72.23,72.23,0,0,1-8.31,4.54l-.1,0c.13.39.22.67.25.79a87.06,87.06,0,0,1,3,13.5c2,15.28.77,32.82-12.89,51.24a87.34,87.34,0,0,0,16.27,3.13C92.27,157.09,93.17,135.08,91.17,120Z"></path><path class="cls-4" d="M101,67.88c1.82,4.75,3.89,10.16,5,12.84.23.54.47,1.09.71,1.63C123.58,71.7,151,60.94,175.23,72.87a87.44,87.44,0,0,0-5.1-17.77C157,50.67,133.25,48.29,101,67.88Z"></path><path class="cls-4" d="M56.79,92.77a121.18,121.18,0,0,1,4.65,14.91,78.52,78.52,0,0,0,18.31-8.41c3.4-2.16,7.49-4.75,10.62-6.64L84.29,77.76c-1.07.72-3,2.23-5.77,4.11a93.36,93.36,0,0,1-13.24,7.47C62.71,90.53,59.87,91.69,56.79,92.77Z"></path><path class="cls-4" d="M42.7,111.5A105.08,105.08,0,0,0,38,96.06C20.47,96.32,7.22,87.73.26,81.89.1,84,0,86.14,0,88.3a88.69,88.69,0,0,0,.81,11.83A63.51,63.51,0,0,0,42.7,111.5Z"></path><path class="cls-5" d="M45.58,65.73c-6.43-13.6-10-31-9-49A88.82,88.82,0,0,0,21,31.13a113.58,113.58,0,0,0,6.64,32A33.28,33.28,0,0,0,45.58,65.73Z"></path><path class="cls-5" d="M53.28,84.11c-.47.1-1,.21-1.42.29a59.76,59.76,0,0,1-11.06.93c-1.2,0-2.4-.07-3.59-.17,3,5.93,9.59,20.2,11.16,37.47A90.42,90.42,0,0,0,63.31,119c-.56-5-1.3-8.85-1.56-10h0c-.11-.44-.21-.86-.31-1.29a121.18,121.18,0,0,0-4.65-14.91C55.78,90.12,54.64,87.31,53.28,84.11Z"></path><path class="cls-5" d="M46.73,142.58a61.86,61.86,0,0,1-9.19,18,87.91,87.91,0,0,0,13.2,7.68,72.18,72.18,0,0,0,12.77-29.14A94.18,94.18,0,0,1,46.73,142.58Z"></path><path class="cls-1" d="M92.55,41.18C89.8,43.1,87.18,45,84.69,46.84c-2,1.51-4.07,3-6.09,4.43A120.05,120.05,0,0,1,68,58.15a101.09,101.09,0,0,0,5.6,14.55,136.92,136.92,0,0,0,20.3-13.4c31-24.1,54.95-24.16,67.18-21A88.69,88.69,0,0,0,146.64,22C124.28,21.61,106.62,31.41,92.55,41.18Z"></path><path class="cls-1" d="M110.75,91.76q-6.24,3.1-13.08,7.32c-3.1,1.93-6.3,4-9.59,6.34a100.77,100.77,0,0,1,3.08,14.43.31.31,0,0,0,0,.1,2.87,2.87,0,0,0,0,.31c48-36.52,75.39-22.8,84-16.34a88.65,88.65,0,0,0,1.4-15.3C166.94,82.19,145.79,74.35,110.75,91.76Z"></path><path class="cls-1" d="M72.57,131.31l.62-.33s-.41-10-2-15.22A69.92,69.92,0,0,1,63.31,119a90.42,90.42,0,0,1-14.94,3.68,82.25,82.25,0,0,1-24.12.32,59.83,59.83,0,0,1-19.47-6,87.68,87.68,0,0,0,9.92,20.1C29.24,141.18,56.07,139.9,72.57,131.31Z"></path><path class="cls-1" d="M41.08,81.31a58.22,58.22,0,0,0,10.76-.9c1.29-.23,2.6-.52,3.93-.85a119.69,119.69,0,0,1-5-14.67,43.72,43.72,0,0,1-5.15.84,33.28,33.28,0,0,1-17.91-2.64c-7.45-3.43-12.95-9.55-17.33-16.26A87.35,87.35,0,0,0,3.48,63.77,50.85,50.85,0,0,0,41.08,81.31Z"></path></g></svg> 